<svg xmlns="http://www.w3.org/2000/svg" width="440" height="160" viewBox="0 0 440 160">
  <defs>
    <linearGradient id="bg" x1="0" y1="0" x2="1" y2="1">
      <stop offset="0%" stop-color="#0d1117"/>
      <stop offset="100%" stop-color="#161b22"/>
    </linearGradient>
  </defs>
  <rect width="440" height="160" rx="12" fill="url(#bg)" stroke="#4ade80" stroke-width="1" stroke-opacity="0.5"/>
  <ellipse cx="105" cy="80" rx="58" ry="50" fill="#4ade8022"/>
  <rect x="41" y="16" width="7" height="7" fill="#1a1a2e"/>
    <rect x="48" y="16" width="7" height="7" fill="#1a1a2e"/>
    <rect x="69" y="16" width="7" height="7" fill="#1a1a2e"/>
    <rect x="76" y="16" width="7" height="7" fill="#1a1a2e"/>
    <rect x="34" y="23" width="7" height="7" fill="#1a1a2e"/>
    <rect x="41" y="23" width="7" height="7" fill="#1a1a2e"/>
    <rect x="48" y="23" width="7" height="7" fill="#1a1a2e"/>
    <rect x="55" y="23" width="7" height="7" fill="#1a1a2e"/>
    <rect x="62" y="23" width="7" height="7" fill="#1a1a2e"/>
    <rect x="69" y="23" width="7" height="7" fill="#1a1a2e"/>
    <rect x="76" y="23" width="7" height="7" fill="#1a1a2e"/>
    <rect x="83" y="23" width="7" height="7" fill="#1a1a2e"/>
    <rect x="27" y="30" width="7" height="7" fill="#1a1a2e"/>
    <rect x="34" y="30" width="7" height="7" fill="#d4a96a"/>
    <rect x="41" y="30" width="7" height="7" fill="#d4a96a"/>
    <rect x="48" y="30" width="7" height="7" fill="#d4a96a"/>
    <rect x="55" y="30" width="7" height="7" fill="#1a1a2e"/>
    <rect x="62" y="30" width="7" height="7" fill="#d4a96a"/>
    <rect x="69" y="30" width="7" height="7" fill="#d4a96a"/>
    <rect x="76" y="30" width="7" height="7" fill="#d4a96a"/>
    <rect x="83" y="30" width="7" height="7" fill="#1a1a2e"/>
    <rect x="90" y="30" width="7" height="7" fill="#d4a96a"/>
    <rect x="20" y="37" width="7" height="7" fill="#1a1a2e"/>
    <rect x="27" y="37" width="7" height="7" fill="#d4a96a"/>
    <rect x="34" y="37" width="7" height="7" fill="#d4a96a"/>
    <rect x="41" y="37" width="7" height="7" fill="#d4a96a"/>
    <rect x="48" y="37" width="7" height="7" fill="#d4a96a"/>
    <rect x="55" y="37" width="7" height="7" fill="#d4a96a"/>
    <rect x="62" y="37" width="7" height="7" fill="#d4a96a"/>
    <rect x="69" y="37" width="7" height="7" fill="#d4a96a"/>
    <rect x="76" y="37" width="7" height="7" fill="#d4a96a"/>
    <rect x="83" y="37" width="7" height="7" fill="#d4a96a"/>
    <rect x="90" y="37" width="7" height="7" fill="#d4a96a"/>
    <rect x="97" y="37" width="7" height="7" fill="#1a1a2e"/>
    <rect x="20" y="44" width="7" height="7" fill="#1a1a2e"/>
    <rect x="27" y="44" width="7" height="7" fill="#d4a96a"/>
    <rect x="34" y="44" width="7" height="7" fill="#d4a96a"/>
    <rect x="41" y="44" width="7" height="7" fill="#1a1a2e"/>
    <rect x="48" y="44" width="7" height="7" fill="#d4a96a"/>
    <rect x="55" y="44" width="7" height="7" fill="#d4a96a"/>
    <rect x="62" y="44" width="7" height="7" fill="#1a1a2e"/>
    <rect x="69" y="44" width="7" height="7" fill="#1a1a2e"/>
    <rect x="76" y="44" width="7" height="7" fill="#d4a96a"/>
    <rect x="83" y="44" width="7" height="7" fill="#d4a96a"/>
    <rect x="90" y="44" width="7" height="7" fill="#d4a96a"/>
    <rect x="97" y="44" width="7" height="7" fill="#1a1a2e"/>
    <rect x="20" y="51" width="7" height="7" fill="#1a1a2e"/>
    <rect x="27" y="51" width="7" height="7" fill="#d4a96a"/>
    <rect x="34" y="51" width="7" height="7" fill="#d4a96a"/>
    <rect x="41" y="51" width="7" height="7" fill="#d4a96a"/>
    <rect x="48" y="51" width="7" height="7" fill="#d4a96a"/>
    <rect x="55" y="51" width="7" height="7" fill="#d4a96a"/>
    <rect x="62" y="51" width="7" height="7" fill="#d4a96a"/>
    <rect x="69" y="51" width="7" height="7" fill="#d4a96a"/>
    <rect x="76" y="51" width="7" height="7" fill="#d4a96a"/>
    <rect x="83" y="51" width="7" height="7" fill="#d4a96a"/>
    <rect x="90" y="51" width="7" height="7" fill="#d4a96a"/>
    <rect x="97" y="51" width="7" height="7" fill="#1a1a2e"/>
    <rect x="20" y="58" width="7" height="7" fill="#1a1a2e"/>
    <rect x="27" y="58" width="7" height="7" fill="#d4a96a"/>
    <rect x="34" y="58" width="7" height="7" fill="#d4a96a"/>
    <rect x="41" y="58" width="7" height="7" fill="#d4a96a"/>
    <rect x="48" y="58" width="7" height="7" fill="#e08888"/>
    <rect x="55" y="58" width="7" height="7" fill="#5a3e28"/>
    <rect x="62" y="58" width="7" height="7" fill="#d4a96a"/>
    <rect x="69" y="58" width="7" height="7" fill="#5a3e28"/>
    <rect x="76" y="58" width="7" height="7" fill="#e08888"/>
    <rect x="83" y="58" width="7" height="7" fill="#d4a96a"/>
    <rect x="90" y="58" width="7" height="7" fill="#d4a96a"/>
    <rect x="97" y="58" width="7" height="7" fill="#1a1a2e"/>
    <rect x="20" y="65" width="7" height="7" fill="#1a1a2e"/>
    <rect x="27" y="65" width="7" height="7" fill="#d4a96a"/>
    <rect x="34" y="65" width="7" height="7" fill="#d4a96a"/>
    <rect x="41" y="65" width="7" height="7" fill="#e08888"/>
    <rect x="48" y="65" width="7" height="7" fill="#d4a96a"/>
    <rect x="55" y="65" width="7" height="7" fill="#5a3e28"/>
    <rect x="62" y="65" width="7" height="7" fill="#d4a96a"/>
    <rect x="69" y="65" width="7" height="7" fill="#5a3e28"/>
    <rect x="76" y="65" width="7" height="7" fill="#e08888"/>
    <rect x="83" y="65" width="7" height="7" fill="#d4a96a"/>
    <rect x="90" y="65" width="7" height="7" fill="#d4a96a"/>
    <rect x="97" y="65" width="7" height="7" fill="#1a1a2e"/>
    <rect x="27" y="72" width="7" height="7" fill="#1a1a2e"/>
    <rect x="34" y="72" width="7" height="7" fill="#d4a96a"/>
    <rect x="41" y="72" width="7" height="7" fill="#d4a96a"/>
    <rect x="48" y="72" width="7" height="7" fill="#d4a96a"/>
    <rect x="55" y="72" width="7" height="7" fill="#d4a96a"/>
    <rect x="62" y="72" width="7" height="7" fill="#d4a96a"/>
    <rect x="69" y="72" width="7" height="7" fill="#d4a96a"/>
    <rect x="76" y="72" width="7" height="7" fill="#d4a96a"/>
    <rect x="83" y="72" width="7" height="7" fill="#d4a96a"/>
    <rect x="90" y="72" width="7" height="7" fill="#1a1a2e"/>
    <rect x="34" y="79" width="7" height="7" fill="#1a1a2e"/>
    <rect x="41" y="79" width="7" height="7" fill="#d4a96a"/>
    <rect x="48" y="79" width="7" height="7" fill="#d4a96a"/>
    <rect x="55" y="79" width="7" height="7" fill="#d4a96a"/>
    <rect x="62" y="79" width="7" height="7" fill="#d4a96a"/>
    <rect x="69" y="79" width="7" height="7" fill="#d4a96a"/>
    <rect x="76" y="79" width="7" height="7" fill="#d4a96a"/>
    <rect x="83" y="79" width="7" height="7" fill="#1a1a2e"/>
    <rect x="41" y="86" width="7" height="7" fill="#1a1a2e"/>
    <rect x="48" y="86" width="7" height="7" fill="#1a1a2e"/>
    <rect x="55" y="86" width="7" height="7" fill="#d4a96a"/>
    <rect x="62" y="86" width="7" height="7" fill="#d4a96a"/>
    <rect x="69" y="86" width="7" height="7" fill="#1a1a2e"/>
    <rect x="76" y="86" width="7" height="7" fill="#1a1a2e"/>
    <rect x="48" y="93" width="7" height="7" fill="#1a1a2e"/>
    <rect x="76" y="93" width="7" height="7" fill="#1a1a2e"/>
  <line x1="185" y1="18" x2="185" y2="142" stroke="#4ade80" stroke-width="0.6" stroke-opacity="0.2"/>
  <text x="205" y="40" font-family="ui-monospace,Menlo,monospace" font-size="13" font-weight="600" fill="#e6edf3">Stage:  Baby</text>
  <text x="205" y="58" font-family="ui-monospace,Menlo,monospace" font-size="11" fill="#4ade80">Day 1  |  Streak: 0 days</text>
  <text x="205" y="84" font-family="ui-monospace,Menlo,monospace" font-size="10" fill="#8b949e">Mood</text>
  <rect x="205" y="90" width="180" height="8" rx="4" fill="#21262d"/>
  <rect x="205" y="90" width="75" height="8" rx="4" fill="#4ade80"/>
  <text x="391" y="97" font-family="ui-monospace,Menlo,monospace" font-size="9" fill="#4ade80" text-anchor="end">Happy</text>
  <text x="205" y="118" font-family="ui-monospace,Menlo,monospace" font-size="10" fill="#8b949e">Contributions (7d)</text>
  <text x="391" y="118" font-family="ui-monospace,Menlo,monospace" font-size="12" font-weight="600" fill="#e6edf3" text-anchor="end">3</text>
  <text x="205" y="140" font-family="ui-monospace,Menlo,monospace" font-size="10" fill="#8b949e">Best streak</text>
  <text x="391" y="140" font-family="ui-monospace,Menlo,monospace" font-size="10" fill="#4ade80" text-anchor="end">0 days</text>
</svg>