<svg xmlns="http://www.w3.org/2000/svg" width="460" height="175" viewBox="0 0 460 175">
  <defs>
    <linearGradient id="bg" x1="0" y1="0" x2="1" y2="1">
      <stop offset="0%" stop-color="#0f0f1a"/>
      <stop offset="100%" stop-color="#1a1a2e"/>
    </linearGradient>
  </defs>
  <rect width="460" height="175" rx="14" fill="url(#bg)" stroke="#4ade80" stroke-width="1.5" stroke-opacity="0.6"/>
  <ellipse cx="121" cy="90" rx="62" ry="55" fill="#4ade8044"/>
  <rect x="51" y="20" width="7" height="7" fill="#1a1a2e"/>
    <rect x="58" y="20" width="7" height="7" fill="#1a1a2e"/>
    <rect x="79" y="20" width="7" height="7" fill="#1a1a2e"/>
    <rect x="86" y="20" width="7" height="7" fill="#1a1a2e"/>
    <rect x="44" y="27" width="7" height="7" fill="#1a1a2e"/>
    <rect x="51" y="27" width="7" height="7" fill="#1a1a2e"/>
    <rect x="58" y="27" width="7" height="7" fill="#1a1a2e"/>
    <rect x="65" y="27" width="7" height="7" fill="#1a1a2e"/>
    <rect x="72" y="27" width="7" height="7" fill="#1a1a2e"/>
    <rect x="79" y="27" width="7" height="7" fill="#1a1a2e"/>
    <rect x="86" y="27" width="7" height="7" fill="#1a1a2e"/>
    <rect x="93" y="27" width="7" height="7" fill="#1a1a2e"/>
    <rect x="37" y="34" width="7" height="7" fill="#1a1a2e"/>
    <rect x="44" y="34" width="7" height="7" fill="#d4a96a"/>
    <rect x="51" y="34" width="7" height="7" fill="#d4a96a"/>
    <rect x="58" y="34" width="7" height="7" fill="#d4a96a"/>
    <rect x="65" y="34" width="7" height="7" fill="#1a1a2e"/>
    <rect x="72" y="34" width="7" height="7" fill="#d4a96a"/>
    <rect x="79" y="34" width="7" height="7" fill="#d4a96a"/>
    <rect x="86" y="34" width="7" height="7" fill="#d4a96a"/>
    <rect x="93" y="34" width="7" height="7" fill="#1a1a2e"/>
    <rect x="100" y="34" width="7" height="7" fill="#d4a96a"/>
    <rect x="30" y="41" width="7" height="7" fill="#1a1a2e"/>
    <rect x="37" y="41" width="7" height="7" fill="#d4a96a"/>
    <rect x="44" y="41" width="7" height="7" fill="#d4a96a"/>
    <rect x="51" y="41" width="7" height="7" fill="#d4a96a"/>
    <rect x="58" y="41" width="7" height="7" fill="#d4a96a"/>
    <rect x="65" y="41" width="7" height="7" fill="#d4a96a"/>
    <rect x="72" y="41" width="7" height="7" fill="#d4a96a"/>
    <rect x="79" y="41" width="7" height="7" fill="#d4a96a"/>
    <rect x="86" y="41" width="7" height="7" fill="#d4a96a"/>
    <rect x="93" y="41" width="7" height="7" fill="#d4a96a"/>
    <rect x="100" y="41" width="7" height="7" fill="#d4a96a"/>
    <rect x="107" y="41" width="7" height="7" fill="#1a1a2e"/>
    <rect x="30" y="48" width="7" height="7" fill="#1a1a2e"/>
    <rect x="37" y="48" width="7" height="7" fill="#d4a96a"/>
    <rect x="44" y="48" width="7" height="7" fill="#d4a96a"/>
    <rect x="51" y="48" width="7" height="7" fill="#1a1a2e"/>
    <rect x="58" y="48" width="7" height="7" fill="#d4a96a"/>
    <rect x="65" y="48" width="7" height="7" fill="#d4a96a"/>
    <rect x="72" y="48" width="7" height="7" fill="#1a1a2e"/>
    <rect x="79" y="48" width="7" height="7" fill="#1a1a2e"/>
    <rect x="86" y="48" width="7" height="7" fill="#d4a96a"/>
    <rect x="93" y="48" width="7" height="7" fill="#d4a96a"/>
    <rect x="100" y="48" width="7" height="7" fill="#d4a96a"/>
    <rect x="107" y="48" width="7" height="7" fill="#1a1a2e"/>
    <rect x="30" y="55" width="7" height="7" fill="#1a1a2e"/>
    <rect x="37" y="55" width="7" height="7" fill="#d4a96a"/>
    <rect x="44" y="55" width="7" height="7" fill="#d4a96a"/>
    <rect x="51" y="55" width="7" height="7" fill="#d4a96a"/>
    <rect x="58" y="55" width="7" height="7" fill="#d4a96a"/>
    <rect x="65" y="55" width="7" height="7" fill="#d4a96a"/>
    <rect x="72" y="55" width="7" height="7" fill="#d4a96a"/>
    <rect x="79" y="55" width="7" height="7" fill="#d4a96a"/>
    <rect x="86" y="55" width="7" height="7" fill="#d4a96a"/>
    <rect x="93" y="55" width="7" height="7" fill="#d4a96a"/>
    <rect x="100" y="55" width="7" height="7" fill="#d4a96a"/>
    <rect x="107" y="55" width="7" height="7" fill="#1a1a2e"/>
    <rect x="30" y="62" width="7" height="7" fill="#1a1a2e"/>
    <rect x="37" y="62" width="7" height="7" fill="#d4a96a"/>
    <rect x="44" y="62" width="7" height="7" fill="#d4a96a"/>
    <rect x="51" y="62" width="7" height="7" fill="#d4a96a"/>
    <rect x="58" y="62" width="7" height="7" fill="#e08888"/>
    <rect x="65" y="62" width="7" height="7" fill="#5a3e28"/>
    <rect x="72" y="62" width="7" height="7" fill="#d4a96a"/>
    <rect x="79" y="62" width="7" height="7" fill="#5a3e28"/>
    <rect x="86" y="62" width="7" height="7" fill="#e08888"/>
    <rect x="93" y="62" width="7" height="7" fill="#d4a96a"/>
    <rect x="100" y="62" width="7" height="7" fill="#d4a96a"/>
    <rect x="107" y="62" width="7" height="7" fill="#1a1a2e"/>
    <rect x="30" y="69" width="7" height="7" fill="#1a1a2e"/>
    <rect x="37" y="69" width="7" height="7" fill="#d4a96a"/>
    <rect x="44" y="69" width="7" height="7" fill="#d4a96a"/>
    <rect x="51" y="69" width="7" height="7" fill="#e08888"/>
    <rect x="58" y="69" width="7" height="7" fill="#d4a96a"/>
    <rect x="65" y="69" width="7" height="7" fill="#5a3e28"/>
    <rect x="72" y="69" width="7" height="7" fill="#d4a96a"/>
    <rect x="79" y="69" width="7" height="7" fill="#5a3e28"/>
    <rect x="86" y="69" width="7" height="7" fill="#e08888"/>
    <rect x="93" y="69" width="7" height="7" fill="#d4a96a"/>
    <rect x="100" y="69" width="7" height="7" fill="#d4a96a"/>
    <rect x="107" y="69" width="7" height="7" fill="#1a1a2e"/>
    <rect x="37" y="76" width="7" height="7" fill="#1a1a2e"/>
    <rect x="44" y="76" width="7" height="7" fill="#d4a96a"/>
    <rect x="51" y="76" width="7" height="7" fill="#d4a96a"/>
    <rect x="58" y="76" width="7" height="7" fill="#d4a96a"/>
    <rect x="65" y="76" width="7" height="7" fill="#d4a96a"/>
    <rect x="72" y="76" width="7" height="7" fill="#d4a96a"/>
    <rect x="79" y="76" width="7" height="7" fill="#d4a96a"/>
    <rect x="86" y="76" width="7" height="7" fill="#d4a96a"/>
    <rect x="93" y="76" width="7" height="7" fill="#d4a96a"/>
    <rect x="100" y="76" width="7" height="7" fill="#1a1a2e"/>
    <rect x="44" y="83" width="7" height="7" fill="#1a1a2e"/>
    <rect x="51" y="83" width="7" height="7" fill="#d4a96a"/>
    <rect x="58" y="83" width="7" height="7" fill="#d4a96a"/>
    <rect x="65" y="83" width="7" height="7" fill="#d4a96a"/>
    <rect x="72" y="83" width="7" height="7" fill="#d4a96a"/>
    <rect x="79" y="83" width="7" height="7" fill="#d4a96a"/>
    <rect x="86" y="83" width="7" height="7" fill="#d4a96a"/>
    <rect x="93" y="83" width="7" height="7" fill="#1a1a2e"/>
    <rect x="51" y="90" width="7" height="7" fill="#1a1a2e"/>
    <rect x="58" y="90" width="7" height="7" fill="#1a1a2e"/>
    <rect x="65" y="90" width="7" height="7" fill="#d4a96a"/>
    <rect x="72" y="90" width="7" height="7" fill="#d4a96a"/>
    <rect x="79" y="90" width="7" height="7" fill="#1a1a2e"/>
    <rect x="86" y="90" width="7" height="7" fill="#1a1a2e"/>
    <rect x="58" y="97" width="7" height="7" fill="#1a1a2e"/>
    <rect x="86" y="97" width="7" height="7" fill="#1a1a2e"/>
  <line x1="200" y1="20" x2="200" y2="155" stroke="#4ade80" stroke-width="0.8" stroke-opacity="0.25"/>
  <text x="224" y="42" font-family="Courier New, monospace" font-size="19" font-weight="bold" fill="#f0f0f0">Ritviz's Pet</text>
  <text x="224" y="62" font-family="Courier New, monospace" font-size="11" fill="#4ade80">Stage: Baby  |  Day 1</text>
  <text x="224" y="88" font-family="Courier New, monospace" font-size="12" fill="#aaaacc">Mood</text>
  <rect x="224" y="95" width="200" height="10" rx="5" fill="#2a2a3e"/>
  <rect x="224" y="95" width="75" height="10" rx="5" fill="#4ade80"/>
  <text x="430" y="104" font-family="Courier New, monospace" font-size="9" fill="#888" text-anchor="end">Happy and Well-Fed</text>
  <text x="224" y="126" font-family="Courier New, monospace" font-size="12" fill="#aaaacc">Streak</text>
  <text x="368" y="126" font-family="Courier New, monospace" font-size="12" fill="#4ade80" text-anchor="end">0 days  (best: 0)</text>
  <text x="224" y="148" font-family="Courier New, monospace" font-size="12" fill="#aaaacc">Contributions (7d)</text>
  <text x="430" y="148" font-family="Courier New, monospace" font-size="12" fill="#f0f0f0" text-anchor="end">3</text>
</svg>